<?xml version="1.0" encoding="UTF-8"?>
<svg version="1.1" xmlns="http://www.w3.org/2000/svg" width="1016" height="931">
<path d="M0 0 C1.80034818 -0.00479793 3.60068888 -0.01443141 5.40098864 -0.02848083 C10.34584251 -0.05308093 15.28807615 -0.00908375 20.23259604 0.04607785 C25.56517337 0.09356732 30.89760213 0.07750695 36.23033142 0.06915283 C45.46866836 0.06338393 54.70615096 0.09790483 63.94427299 0.15976906 C77.30090395 0.24915519 90.65712167 0.27781358 104.01401932 0.29163697 C125.68426813 0.31571389 147.35406157 0.38892316 169.02406311 0.4929657 C190.07482117 0.59393003 211.12545557 0.67179496 232.17640686 0.71855164 C233.47391087 0.72144159 234.77141488 0.72433155 236.1082372 0.72730909 C242.61741297 0.74166446 249.12658963 0.75556526 255.63576686 0.76924002 C309.63880471 0.88328015 363.64134822 1.07702996 417.64393616 1.32279968 C416.92491875 2.45080994 416.92491875 2.45080994 416.19137573 3.60160828 C415.56188522 4.58983582 414.93239471 5.57806335 414.28382874 6.59623718 C413.6601088 7.57511902 413.03638885 8.55400085 412.39376831 9.56254578 C411.04969342 11.68274226 409.71784533 13.8078614 408.40565491 15.94779968 C403.02038207 24.71027752 397.36942399 33.28059981 391.64393616 41.82279968 C386.47060371 49.54145894 381.34190615 57.27111846 376.47328186 65.1870575 C372.53951493 71.5560925 368.43557597 77.81268982 364.33143616 84.07279968 C363.77907791 84.91540848 363.77907791 84.91540848 363.21556091 85.77503967 C361.38077967 88.57348449 359.54540945 91.37154219 357.70985413 94.16947937 C354.7601604 98.67175356 351.82516987 103.18349235 348.89393616 107.69779968 C348.37339661 108.49927429 347.85285706 109.3007489 347.31654358 110.12651062 C346.27908396 111.72409797 345.24172948 113.3217536 344.20448303 114.91947937 C341.51920568 119.05494092 338.831431 123.18877901 336.14393616 127.32279968 C332.91677472 132.28725453 329.68986261 137.25187044 326.46424866 142.21733093 C320.06453899 152.06786444 313.65345345 161.9108976 307.23475647 171.74906921 C301.55888253 180.45002898 295.89596689 189.15936591 290.23670959 197.87113953 C287.53988862 202.02219351 284.84184402 206.17245206 282.14393616 210.32279968 C281.0605971 211.98946263 279.97726377 213.6561293 278.89393616 215.32279968 C276.72726949 218.65613302 274.56060282 221.98946635 272.39393616 225.32279968 C271.58835266 226.56223328 271.58835266 226.56223328 270.76649475 227.82670593 C269.69148278 229.48047096 268.61628975 231.13411831 267.54090881 232.78764343 C264.70370351 237.15071895 261.87038484 241.51625821 259.04237366 245.88529968 C258.45262756 246.79537781 257.86288147 247.70545593 257.25526428 248.64311218 C256.12519743 250.38715237 254.99623277 252.1319074 253.86854553 253.87748718 C253.35872131 254.66381531 252.84889709 255.45014343 252.32362366 256.26029968 C251.65435852 257.29477234 251.65435852 257.29477234 250.97157288 258.35014343 C249.59884612 260.38979628 248.11907767 262.35594433 246.64393616 264.32279968 C177.67393616 264.32279968 108.70393616 264.32279968 37.64393616 264.32279968 C37.64393616 484.76279968 37.64393616 705.20279968 37.64393616 932.32279968 C33.9817658 930.85793154 31.71662805 929.85429621 28.65956116 927.66264343 C27.90191467 927.12486267 27.14426819 926.58708191 26.36366272 926.03300476 C25.54865295 925.44801208 24.73364319 924.86301941 23.89393616 924.26029968 C15.95308709 918.62899073 7.95282064 913.09639485 -0.10606384 907.63529968 C-2.23502305 906.19136734 -4.3639305 904.7473587 -6.49278259 903.30326843 C-7.49744568 902.62183777 -8.50210876 901.9404071 -9.53721619 901.23832703 C-15.21331565 897.38117508 -20.86429993 893.48761237 -26.51426697 889.59233093 C-29.73079892 887.37520923 -32.94958529 885.16136717 -36.16856384 882.94779968 C-36.82155457 882.49872253 -37.47454529 882.04964539 -38.14732361 881.58695984 C-44.18788534 877.43466992 -50.23819335 873.2966752 -56.28892517 869.15922546 C-61.96459915 865.27735184 -67.63285398 861.38484752 -73.29747009 857.48686218 C-78.47774278 853.92349369 -83.66591376 850.37176266 -88.85606384 846.82279968 C-95.34312831 842.38702206 -101.82352943 837.94176702 -108.29747009 833.48686218 C-113.47774278 829.92349369 -118.66591376 826.37176266 -123.85606384 822.82279968 C-130.34312831 818.38702206 -136.82352943 813.94176702 -143.29747009 809.48686218 C-148.47774284 805.92349365 -153.66592619 802.37178091 -158.85606384 798.82279968 C-168.01325444 792.56079569 -177.15581896 786.27772891 -186.29454041 779.98881531 C-187.55896769 779.1187674 -188.82489688 778.2508968 -190.0925588 777.38556856 C-191.40647245 776.47559767 -192.70951617 775.54954763 -193.99659115 774.601996 C-197.63340968 771.96991991 -201.01495632 769.97773414 -205.22823238 768.40546322 C-211.2170331 765.8605382 -215.83293604 762.9118102 -219.35606384 757.32279968 C-222.93256858 744.90976445 -221.94203584 731.30397626 -221.76653731 718.51481521 C-221.71308357 713.10796108 -221.76952414 707.70207159 -221.81176758 702.29527283 C-221.8769007 691.71216128 -221.84022861 681.13175363 -221.76780231 670.54878307 C-221.68656947 658.20851909 -221.70124203 645.86891762 -221.71831196 633.52846616 C-221.74500356 611.49378844 -221.67673334 589.46040177 -221.55845642 567.42607117 C-221.44389651 546.08107355 -221.40830541 524.73816884 -221.45591736 503.39286804 C-221.50772276 480.12287987 -221.51500239 456.85366829 -221.44603914 433.58369726 C-221.43872901 431.09742867 -221.4314416 428.61116001 -221.42417717 426.12489128 C-221.42054237 424.90179272 -221.41690758 423.67869416 -221.41316264 422.418532 C-221.39039227 413.83347367 -221.39805923 405.24875507 -221.41702461 396.6636982 C-221.43895499 386.18201701 -221.40922199 375.70191144 -221.31583387 365.22060133 C-221.2693902 359.88046169 -221.24428247 354.54269456 -221.28064728 349.20242119 C-221.52608286 308.86828208 -221.52608286 308.86828208 -207.05679691 292.32089603 C-204.44591897 289.25352127 -202.33127793 285.89991256 -200.16856384 282.51029968 C-199.37202762 281.3182238 -198.57292612 280.12785392 -197.77012634 278.93998718 C-193.71069423 272.88237181 -189.78572062 266.73648182 -185.83311462 260.6089325 C-183.22403566 256.57068201 -180.60230657 252.54066108 -177.98106384 248.51029968 C-177.43732117 247.67410095 -176.89357849 246.83790222 -176.33335876 245.97636414 C-175.22672305 244.27458765 -174.1200334 242.57284624 -173.01329041 240.87113953 C-170.83404633 237.52008625 -168.65556468 234.16853772 -166.47715759 230.81694031 C-164.85094726 228.31492754 -163.22459909 225.81300439 -161.59825134 223.31108093 C-159.4571459 220.01712201 -157.31655639 216.72282868 -155.17637634 213.42826843 C-148.77666667 203.57773492 -142.36558114 193.73470177 -135.94688416 183.89653015 C-130.27101021 175.19557038 -124.60809457 166.48623345 -118.94883728 157.77445984 C-116.25201631 153.62340585 -113.55397171 149.47314731 -110.85606384 145.32279968 C-109.77272479 143.65613673 -108.68939145 141.98947007 -107.60606384 140.32279968 C-97.85606384 125.32279968 -97.85606384 125.32279968 -88.10606384 110.32279968 C-87.56997498 109.49804138 -87.03388611 108.67328308 -86.48155212 107.8235321 C-85.39661406 106.15440916 -84.31165307 104.48530112 -83.22666931 102.81620789 C-80.54270147 98.68724326 -77.85911353 94.55803279 -75.17637634 90.42826843 C-68.77666667 80.57773492 -62.36558114 70.73470177 -55.94688416 60.89653015 C-50.80922933 53.02064558 -45.68160415 45.13828997 -40.55918884 37.25248718 C-38.34236089 33.83977485 -36.1233591 30.4284883 -33.90293884 27.01811218 C-33.33011169 26.13792419 -32.75728455 25.25773621 -32.167099 24.35087585 C-31.08907874 22.6945085 -30.0106665 21.03839616 -28.93174744 19.38261414 C-28.18658875 18.23732239 -28.18658875 18.23732239 -27.42637634 17.06889343 C-26.94249878 16.35591781 -26.45862121 15.6429422 -25.96008068 14.90836126 C-24.28709651 12.35262466 -24.28709651 12.35262466 -23.13515276 9.49956864 C-18.05827138 -1.08732738 -10.37419757 -0.20460931 0 0 Z " fill="#7D54ED" transform="translate(598.3560638427734,-1.3227996826171875)"/>
<path d="M0 0 C171.6 0 343.2 0 520 0 C515.91034885 7.01083054 511.92049322 13.82358462 507.375 20.5 C506.32842372 22.05401224 505.28288871 23.60872613 504.23828125 25.1640625 C503.70541504 25.9571582 503.17254883 26.75025391 502.62353516 27.56738281 C499.9009286 31.64678909 497.23061076 35.75981922 494.5625 39.875 C494.02286621 40.70708984 493.48323242 41.53917969 492.92724609 42.39648438 C491.831584 44.08672968 490.73620685 45.77715973 489.64111328 47.46777344 C486.93188611 51.64809243 484.21568664 55.82387561 481.5 60 C478.21189026 65.05668415 474.92522218 70.11427986 471.64453125 75.17578125 C471.08636719 76.03623047 470.52820313 76.89667969 469.953125 77.78320312 C468.9145966 79.38426774 467.87674965 80.98577475 466.83984375 82.58789062 C465.859195 84.09907553 464.86377277 85.60078013 463.85353404 87.09234625 C462.45579077 89.28499736 461.23743045 91.42163527 460.03718776 93.71710151 C454.36028573 104.04200072 454.36028573 104.04200072 448.56802905 106.39297783 C444.39993657 106.92355923 440.4558744 106.98064205 436.26643372 106.87110901 C434.67880106 106.88482897 433.09121395 106.90510428 431.50373858 106.93132728 C427.15984248 106.98408478 422.8211169 106.94376505 418.47744906 106.88757479 C413.78670018 106.84324768 409.09661151 106.88561374 404.40586853 106.91688538 C395.2253092 106.96426868 386.04671808 106.93138412 376.86630515 106.87057067 C366.17474468 106.80239009 355.48365051 106.81066652 344.7919279 106.82123732 C325.7167571 106.83717772 306.64252069 106.77889817 287.56762695 106.6809082 C269.05854857 106.58584994 250.55056478 106.55048138 232.04125977 106.57836914 C211.88085648 106.60865478 191.72093423 106.60778269 171.5605709 106.55093998 C169.41126265 106.54490355 167.26195439 106.53887362 165.1126461 106.53285027 C164.05516262 106.52983257 162.99767914 106.52681488 161.90815071 106.52370574 C154.45527586 106.50430775 147.00258008 106.50627864 139.54969215 106.5157795 C130.46944443 106.52638754 121.39015537 106.50028508 112.31017784 106.42771173 C107.67703052 106.39147994 103.04527954 106.37111196 98.41201401 106.39392853 C94.17038741 106.4143086 89.93164358 106.38851279 85.69045468 106.32579815 C84.15638632 106.31115454 82.62204609 106.31333177 81.08804724 106.33401353 C69.6393411 106.47435665 69.6393411 106.47435665 65.61004579 102.85057247 C63.80086095 100.3054316 62.38905926 97.79203099 61 95 C59.99505579 93.43846321 58.97418818 91.88692185 57.9296875 90.3515625 C56.90966199 88.77720406 55.89148745 87.20164511 54.875 85.625 C53.73702746 83.86715624 52.59900521 82.10934465 51.4609375 80.3515625 C50.88698242 79.4637207 50.31302734 78.57587891 49.72167969 77.66113281 C46.98822289 73.43613578 44.24376825 69.21830472 41.5 65 C40.4166094 63.33337056 39.33327618 61.66670382 38.25 60 C37.71375 59.175 37.1775 58.35 36.625 57.5 C34.1875 53.75 34.1875 53.75 31.75 50 C31.21342773 49.1745166 30.67685547 48.3490332 30.12402344 47.49853516 C29.04389952 45.83678107 27.96382117 44.17499735 26.88378906 42.51318359 C24.1267303 38.27110675 21.36880961 34.02959433 18.609375 29.7890625 C15.90148557 25.62731995 13.19588985 21.46409731 10.49267578 17.29931641 C9.5150653 15.79340611 8.53689618 14.2878583 7.55810547 12.78271484 C6.26559346 10.79412888 4.97604818 8.80365589 3.6875 6.8125 C2.96949219 5.70519531 2.25148437 4.59789062 1.51171875 3.45703125 C-0 1 -0 1 0 0 Z " fill="#7D54ED" transform="translate(0,0)"/>
<path d="M0 0 C103.62 0 207.24 0 314 0 C308.37694264 10.12150325 308.37694264 10.12150325 305.25 14.86328125 C304.56599121 15.90444092 303.88198242 16.94560059 303.17724609 18.01831055 C302.45875488 19.10539307 301.74026367 20.19247559 301 21.3125 C300.23873199 22.46956916 299.47783229 23.62688071 298.71728516 24.78442383 C297.19179785 27.10599414 295.66512987 29.42678079 294.13769531 31.74707031 C291.20046217 36.21665625 288.28550041 40.70047854 285.375 45.1875 C280.13033148 53.26537259 274.87213715 61.33434873 269.60742188 69.39916992 C266.50923532 74.14658584 263.41634606 78.89727562 260.3359375 83.65625 C259.75263672 84.55666016 259.16933594 85.45707031 258.56835938 86.38476562 C257.47712984 88.07006706 256.38718616 89.75620212 255.29882812 91.44335938 C254.80576172 92.20455078 254.31269531 92.96574219 253.8046875 93.75 C253.17022705 94.73226562 253.17022705 94.73226562 252.52294922 95.734375 C252.02037598 96.48203125 251.51780273 97.2296875 251 98 C250.49092606 99.18010147 249.98185211 100.36020294 249.45735168 101.57606506 C247.37893042 104.42858877 246.22155404 104.95398737 242.71360016 105.68252373 C238.20245453 106.0770011 233.68429128 106.05070669 229.15942383 106.04858398 C227.41134658 106.07280947 225.66330671 106.09987366 223.91531372 106.12956238 C219.16910194 106.1999415 214.4237198 106.22458142 209.67703843 106.23666263 C206.70940436 106.24608621 203.7419842 106.26497399 200.77441978 106.28715706 C190.41452032 106.36390451 180.05524268 106.40225435 169.69506836 106.40698242 C160.04900965 106.4124479 150.40633274 106.50381792 140.76123983 106.63502258 C132.47216951 106.74378923 124.18421158 106.79062975 115.89443225 106.79010826 C110.94646973 106.7909285 106.00177646 106.81676767 101.05454445 106.90563774 C96.39626408 106.98729655 91.74409192 106.99157751 87.08546829 106.93777657 C85.38184722 106.93103116 83.67785817 106.95133867 81.97496223 107.00149536 C71.50786281 107.29042336 71.50786281 107.29042336 67 105 C62.8818491 101.09966691 60.44158552 96.08401414 58.0235914 91.02600873 C56.42237778 87.85670429 54.44780654 85.01902388 52.4375 82.09375 C51.34489868 80.46747681 51.34489868 80.46747681 50.23022461 78.80834961 C49.49425049 77.71659424 48.75827637 76.62483887 48 75.5 C42.82261169 67.78615979 37.70078033 60.05345359 32.83154297 52.14013672 C28.87168015 45.73108119 24.75019424 39.42846677 20.625 33.125 C20.25947021 32.5660202 19.89394043 32.00704041 19.51733398 31.43112183 C15.78890467 25.73237342 12.04284863 20.04668621 8.23828125 14.3984375 C7.67608887 13.56296387 7.11389648 12.72749023 6.53466797 11.86669922 C5.49512038 10.32628736 4.45138464 8.78869089 3.40283203 7.25439453 C0 2.2183964 0 2.2183964 0 0 Z " fill="#7D54ED" transform="translate(103,158)"/>
</svg>
