<svg width="152" height="116" viewBox="0 0 152 116" fill="none" xmlns="http://www.w3.org/2000/svg">
<path d="M34.0683 85.8148C29.2116 85.7267 24.9366 84.5066 21.2434 82.1546C17.4063 79.6391 14.4064 76.0815 12.2437 71.4818C10.081 66.8821 8.99965 61.384 8.99965 54.9876C8.99965 48.5911 10.081 43.093 12.2437 38.4933C14.4762 33.8936 17.5807 30.3719 21.5573 27.9284C25.5339 25.4129 30.2081 24.1552 35.58 24.1552C36.4372 24.1552 37.2708 24.185 38.081 24.2447C39.8703 21.0743 41.3363 18.5381 42.6843 16.4192C40.4445 16.0425 38.0764 15.8541 35.58 15.8541C28.3245 15.8541 22.0108 17.5071 16.6389 20.8132C11.3368 24.1192 7.22065 28.7189 4.29053 34.6123C1.43018 40.5057 0 47.2974 0 54.9876C0 62.6777 1.43018 69.4695 4.29053 75.3628C7.15089 81.1843 11.1624 85.7481 16.325 89.0542C21.4875 92.2883 27.4873 93.9054 34.3243 93.9054C35.7836 93.9054 37.1766 93.8427 38.5033 93.7174C37.693 92.2867 36.816 90.7219 35.8518 89.0013C35.2206 87.8751 34.6269 86.8157 34.0683 85.8148Z" fill="#8977FE"/>
<path d="M43.2395 25.0176C47.723 25.3383 51.4689 26.5688 54.477 28.7092C58.0833 31.2268 60.3627 34.629 61.3153 38.9157H71.2157C69.6507 32.1114 66.1804 26.77 60.805 22.8915C57.1071 20.1891 52.7485 18.4282 47.7292 17.6088C46.4145 19.6149 44.9846 22.016 43.2395 25.0176Z" fill="#0AE8F0"/>
<path d="M43.6513 90.791C47.9863 90.3935 51.5948 89.3301 54.477 87.6008C58.2194 85.3554 61.3834 82.1573 63.969 78.0067L64.6835 89.7442H72.5425V51.5718H43.1477V58.3081H63.7649C63.2205 66.065 61.0091 72.189 57.1307 76.6798C53.2522 81.1026 47.5025 83.3141 39.8816 83.3141C39.6955 83.3141 39.5102 83.3124 39.3258 83.3092C39.8706 84.2568 40.4497 85.2598 41.0653 86.326C42.0058 87.955 42.861 89.4364 43.6513 90.791Z" fill="#0AE8F0"/>
<path fill-rule="evenodd" clip-rule="evenodd" d="M95.7966 87.7029C99.607 89.8803 103.894 90.9689 108.657 90.9689C113.42 90.9689 117.707 89.8803 121.517 87.7029C125.395 85.5255 128.457 82.4635 130.703 78.517C132.948 74.5024 134.071 69.8074 134.071 64.432C134.071 59.0566 132.948 54.3956 130.703 50.4491C128.525 46.4345 125.532 43.3385 121.721 41.1611C117.911 38.9838 113.624 37.8951 108.861 37.8951C104.098 37.8951 99.7772 38.9838 95.8987 41.1611C92.0882 43.3385 89.0603 46.4345 86.8149 50.4491C84.5694 54.3956 83.4467 59.0566 83.4467 64.432C83.4467 69.8074 84.5354 74.5024 86.7128 78.517C88.9582 82.4635 91.9862 85.5255 95.7966 87.7029ZM116.822 81.4769C114.304 82.9058 111.583 83.6203 108.657 83.6203C105.799 83.6203 103.111 82.9058 100.594 81.4769C98.1441 80.048 96.1368 77.9046 94.5718 75.0468C93.0068 72.189 92.2243 68.6507 92.2243 64.432C92.2243 60.2133 93.0068 56.6751 94.5718 53.8172C96.1368 50.9594 98.1781 48.816 100.696 47.3871C103.213 45.9582 105.935 45.2438 108.861 45.2438C111.719 45.2438 114.406 45.9582 116.924 47.3871C119.442 48.816 121.449 50.9594 122.946 53.8172C124.511 56.6751 125.293 60.2133 125.293 64.432C125.293 68.6507 124.511 72.189 122.946 75.0468C121.381 77.9046 119.34 80.048 116.822 81.4769Z" fill="#0AE8F0"/>
<path d="M108.657 83.6203C111.583 83.6203 114.304 82.9058 116.822 81.4769C119.34 80.048 121.381 77.9046 122.946 75.0468C124.511 72.189 125.293 68.6507 125.293 64.432C125.293 60.2133 124.511 56.6751 122.946 53.8172C121.449 50.9594 119.442 48.816 116.924 47.3871C114.406 45.9582 111.719 45.2438 108.861 45.2438C105.935 45.2438 103.213 45.9582 100.696 47.3871C98.1781 48.816 96.1368 50.9594 94.5718 53.8172C93.0068 56.6751 92.2243 60.2133 92.2243 64.432C92.2243 68.6507 93.0068 72.189 94.5718 75.0468C96.1368 77.9046 98.1441 80.048 100.594 81.4769C103.111 82.9058 105.799 83.6203 108.657 83.6203Z" fill="#8977FE"/>
<path fill-rule="evenodd" clip-rule="evenodd" d="M52.2512 11.7985C48.8501 15.291 46.255 19.7858 41.0649 28.7753C35.8748 37.7649 33.2797 42.2597 31.9557 46.9514C29.9998 53.8822 29.9998 61.2191 31.9557 68.1499C33.2797 72.8416 35.8751 77.3365 41.0653 86.326C46.2554 95.3156 48.8501 99.8103 52.2512 103.303C57.2755 108.462 63.6295 112.131 70.6097 113.902C75.3349 115.101 80.525 115.101 90.9052 115.101C101.285 115.101 106.476 115.101 111.201 113.902C118.181 112.131 124.535 108.462 129.559 103.303C132.96 99.8103 135.555 95.3155 140.746 86.3259C145.936 77.3364 148.531 72.8416 149.855 68.1499C151.811 61.2191 151.811 53.8822 149.855 46.9514C148.531 42.2597 145.936 37.7649 140.746 28.7754C135.555 19.7858 132.96 15.291 129.559 11.7985C124.535 6.6392 118.181 2.97075 111.201 1.19921C106.476 0 101.285 0 90.9052 0C80.525 0 75.3349 0 70.6097 1.19921C63.6295 2.97075 57.2755 6.6392 52.2512 11.7985ZM43.2395 25.0176C47.723 25.3383 51.4689 26.5688 54.477 28.7092C58.0833 31.2268 60.3627 34.629 61.3153 38.9157H71.2157C69.6507 32.1114 66.1804 26.77 60.805 22.8915C57.1071 20.1891 52.7485 18.4282 47.7292 17.6088C46.4145 19.6149 44.9846 22.016 43.2395 25.0176ZM43.6513 90.791C47.9863 90.3935 51.5948 89.3301 54.477 87.6008C58.2194 85.3554 61.3834 82.1573 63.969 78.0067L64.6835 89.7442H72.5425V51.5718H43.1477V58.3081H63.7649C63.2205 66.065 61.0091 72.189 57.1307 76.6798C53.2522 81.1026 47.5025 83.3141 39.8816 83.3141C39.6955 83.3141 39.5102 83.3124 39.3258 83.3092C39.8683 84.2528 40.4448 85.2514 41.0575 86.3126L41.064 86.3239L41.0653 86.326L41.0666 86.3284L41.0673 86.3296L41.0681 86.331C42.0075 87.958 42.8618 89.4378 43.6513 90.791ZM108.657 90.9689C103.894 90.9689 99.607 89.8803 95.7966 87.7029C91.9862 85.5255 88.9582 82.4635 86.7128 78.517C84.5354 74.5024 83.4467 69.8074 83.4467 64.432C83.4467 59.0566 84.5694 54.3956 86.8149 50.4491C89.0603 46.4345 92.0882 43.3385 95.8987 41.1611C99.7772 38.9838 104.098 37.8951 108.861 37.8951C113.624 37.8951 117.911 38.9838 121.721 41.1611C125.532 43.3385 128.525 46.4345 130.703 50.4491C132.948 54.3956 134.071 59.0566 134.071 64.432C134.071 69.8074 132.948 74.5024 130.703 78.517C128.457 82.4635 125.395 85.5255 121.517 87.7029C117.707 89.8803 113.42 90.9689 108.657 90.9689Z" fill="#8977FE"/>
</svg>
