<svg xmlns="http://www.w3.org/2000/svg" viewBox="0 0 1500 1500" fill="none" preserveAspectRatio="xMidYMid meet">
  <defs><clipPath id="f1"><rect x="0" width="891" y="0" height="1500"/></clipPath><clipPath id="f2"><rect x="0" width="991" y="0" height="1500"/></clipPath></defs>
  <g transform="translate(601,0)"><g clip-path="url(#f1)"><g fill="#a855f7"><g transform="translate(3.402859,1083.691524)"><path d="M 55.921875 -0.78125 L 220.515625 -752.140625 L 127.59375 -874.21875 L 793.890625 -874.21875 C 800.179688 -874.21875 806.742188 -872.117188 813.578125 -867.921875 C 816.722656 -865.296875 819.738281 -862.800781 822.625 -860.4375 C 825.519531 -858.070312 828.28125 -855.316406 830.90625 -852.171875 C 836.15625 -846.910156 840.351562 -840.609375 843.5 -833.265625 C 846.644531 -827.484375 847.695312 -821.96875 846.65625 -816.71875 L 771.828125 -477.28125 L 663.9375 -422.140625 L 748.203125 -368.59375 L 680.46875 -58.28125 C 679.945312 -54.082031 676.535156 -48.566406 670.234375 -41.734375 C 667.078125 -38.066406 663.925781 -34.65625 660.78125 -31.5 C 657.632812 -28.351562 653.957031 -25.46875 649.75 -22.84375 C 645.550781 -19.6875 641.484375 -16.925781 637.546875 -14.5625 C 633.609375 -12.207031 629.539062 -9.71875 625.34375 -7.09375 C 615.882812 -2.882812 608.269531 -0.78125 602.5 -0.78125 Z M 601.71875 -705.671875 L 430.015625 -705.671875 L 396.15625 -548.9375 L 333.9375 -508.78125 L 363.859375 -402.453125 L 312.671875 -169.328125 L 485.15625 -169.328125 L 525.3125 -353.625 L 437.890625 -310.3125 L 387.484375 -488.296875 L 578.078125 -597.78125 Z"/></g></g></g></g>
  <g transform="translate(60,0)"><g clip-path="url(#f2)"><g fill="#a855f7"><g transform="translate(4.515022,1285.394213)"><path d="M 220.515625 -0.78125 L 0.78125 -0.78125 L 164.609375 -752.140625 L 71.671875 -874.21875 L 411.125 -874.21875 L 485.15625 -510.359375 L 737.96875 -874.21875 L 964 -874.21875 L 772.625 -0.78125 L 554.453125 -0.78125 L 634.796875 -368.59375 L 539.5 -222.890625 C 538.445312 -221.835938 537.132812 -220.785156 535.5625 -219.734375 C 532.9375 -218.679688 531.625 -217.367188 531.625 -215.796875 L 522.953125 -207.140625 L 513.5 -197.6875 L 357.5625 -80.328125 L 310.3125 -358.34375 L 301.640625 -373.3125 Z"/></g></g></g></g>
</svg>
